<?xml version="1.0" encoding="UTF-8"?>
<svg width="201px" height="178px" viewBox="0 0 201 178" version="1.1" xmlns="http://www.w3.org/2000/svg" xmlns:xlink="http://www.w3.org/1999/xlink">
    <!-- Generator: Sketch 58 (84663) - https://sketch.com -->
    <title>Shape 2</title>
    <desc>Created with Sketch.</desc>
    <defs>
        <linearGradient x1="100.039812%" y1="55.7803663%" x2="-1.72130164%" y2="48.7075918%" id="linearGradient-1">
            <stop stop-color="#F03F32" offset="0%"></stop>
            <stop stop-color="#360940" offset="100%"></stop>
        </linearGradient>
        <linearGradient x1="100%" y1="55.7421181%" x2="0%" y2="51.9434319%" id="linearGradient-2">
            <stop stop-color="#F03F32" offset="0%"></stop>
            <stop stop-color="#360940" offset="100%"></stop>
        </linearGradient>
    </defs>
    <g id="Shapes" stroke="none" stroke-width="1" fill="none" fill-rule="evenodd">
        <g id="Desktop-HD" transform="translate(-1081.000000, -450.000000)">
            <g id="Shape-2" transform="translate(1051.641090, 415.077164)">
                <path d="M54.6575025,64.7810478 C37.0970388,73.762007 22.9883675,90.7615359 17.3426418,107.809386 C9.64954006,131.033708 20.8621463,160.389673 51.6025275,162.740212 C61.1943133,163.474152 70.8695193,162.00842 80.5288647,160.541615 C94.7975135,158.375233 109.030781,156.20885 122.899258,161.136633 C139.327374,166.975397 149.446216,181.524927 166.397118,186.604652 C203.667752,197.774812 238.028596,167.999127 238.961925,136.216115 C239.492642,118.205608 234.591139,98.875405 216.947865,87.9159772 C213.132197,85.5469153 209.246376,83.8637405 205.290403,82.714779 C194.534243,79.5927179 183.245842,80.4181984 171.387073,82.1389561 C161.352261,83.5952915 151.277798,83.6342166 141.46976,81.0061016 C118.590541,74.8787546 99.6677525,59.0013422 77.4119728,59 C70.2518751,59 62.7498617,60.6429075 54.6575025,64.7810478 Z" id="Fill-7-Copy" fill="#FFFFFF" opacity="0.0974237351" transform="translate(127.000000, 124.000000) rotate(-43.000000) translate(-127.000000, -124.000000) "></path>
                <path d="M57.4707389,69.3363519 C41.3213839,77.626468 28.3464451,93.3183408 23.1543938,109.054817 C16.0794877,130.492654 26.391081,157.590468 54.6612529,159.760196 C63.4822703,160.437678 72.3800043,159.084696 81.2631524,157.730722 C94.3852133,155.730984 107.474736,153.731246 120.228782,158.279969 C135.336781,163.669597 144.642502,177.099932 160.231278,181.788909 C194.506951,192.099826 226.106655,164.614579 226.964985,135.276414 C227.453054,118.65133 222.945423,100.808066 206.719912,90.6916712 C203.21086,88.5048449 199.637292,86.9511451 195.99921,85.8905653 C186.107384,83.0086627 175.726087,83.7706447 164.820255,85.3590364 C155.591812,86.703346 146.326903,86.7392769 137.307012,84.3133245 C116.266301,78.6573119 98.8640938,64.001239 78.396725,64 C71.8119922,64 64.9128193,65.51653 57.4707389,69.3363519 Z" id="Fill-7-Copy" fill="url(#linearGradient-1)" opacity="0.346051897" transform="translate(124.000000, 124.000000) rotate(-37.000000) translate(-124.000000, -124.000000) "></path>
                <path d="M63.2839753,73.8916559 C48.545729,81.490929 36.7045227,95.8751458 31.9661458,110.300249 C25.5094354,129.951599 34.9200157,154.791262 60.7199784,156.78018 C68.7702273,157.401205 76.8904894,156.160971 84.99744,154.919828 C96.9729131,153.086735 108.918691,151.253642 120.558306,155.423304 C134.346189,160.363797 142.838788,172.674938 157.065438,176.973167 C188.346149,186.424841 217.184715,161.23003 217.968044,134.336713 C218.413467,119.097053 214.299706,102.740727 199.491958,93.4673653 C196.289522,91.4627745 193.028208,90.0385496 189.708017,89.0663515 C180.680526,86.4246075 171.206332,87.1230909 161.253437,88.5791167 C152.831362,89.8114005 144.376009,89.8443372 136.144263,87.6205475 C116.942061,82.4358693 101.060435,69.0011357 82.3814771,69 C76.3721094,69 70.0757768,70.3901525 63.2839753,73.8916559 Z" id="Fill-7-Copy" fill="url(#linearGradient-2)" transform="translate(124.000000, 124.000000) rotate(-47.000000) translate(-124.000000, -124.000000) "></path>
            </g>
        </g>
    </g>
</svg>
