<?xml version="1.0" encoding="UTF-8"?>
<svg width="1440" height="847" viewBox="0 0 1440 847" version="1.1"
    xmlns="http://www.w3.org/2000/svg"
    xmlns:xlink="http://www.w3.org/1999/xlink">
    <!-- Generator: Sketch 60 (88103) - https://sketch.com -->
    <title>Group</title>
    <desc>Created with Sketch.</desc>
    <defs>
        <linearGradient x1="10.0404131%" y1="43.8044866%" x2="90.7568693%" y2="53.6444749%" id="linearGradient-1">
            <stop stop-color="#F03F32" offset="0%"></stop>
            <stop stop-color="#360940" offset="100%"></stop>
        </linearGradient>
        <linearGradient x1="10.0404131%" y1="44.1438483%" x2="90.7568693%" y2="53.4448474%" id="linearGradient-2">
            <stop stop-color="#F03F32" offset="0%"></stop>
            <stop stop-color="#360940" offset="100%"></stop>
        </linearGradient>
    </defs>
    <g id="Page-1" stroke="none" stroke-width="1" fill="none" fill-rule="evenodd">
        <g id="Desktop-HD" transform="translate(0.000000, -72.000000)">
            <g id="Group" transform="translate(-521.000000, 10.000000)">
                <path d="M396.969038,815.151429 C616.495564,908.582823 872.254387,685.673253 1338.28877,692.365876 C1804.32315,699.058498 1959.4053,1060.3859 2257.84328,841.875056 C2556.28127,623.36421 2296.0059,119.968946 2226.21868,42.2397983 C2156.43147,-35.4893492 2123.66331,173.341876 1734.62314,198.936037 C1345.58298,224.530198 371.973831,-24.0858594 216.306106,214.845434 C60.6383813,453.776727 177.442513,721.720035 396.969038,815.151429 Z" id="Path" fill="url(#linearGradient-1)" opacity="0.343447731" transform="translate(1271.500000, 468.500000) scale(-1, 1) translate(-1271.500000, -468.500000) "></path>
                <path d="M252.031093,799.264708 C471.611684,892.709497 727.433495,669.76797 1193.58265,676.461552 C1659.7318,683.155134 1960.16204,1066.2446 2258.67353,847.702425 C2557.18501,629.160253 2151.53564,103.982561 2081.73124,26.2422699 C2011.92684,-51.4980212 1979.15061,157.363143 1590.01463,182.960974 C1200.87866,208.558804 227.02973,-40.0928965 71.3236674,198.872651 C-84.3823951,437.838198 32.4505024,705.81992 252.031093,799.264708 Z" id="Path" fill="url(#linearGradient-2)" opacity="0.343447731"></path>
                <path d="M396.969038,790.151429 C616.495564,883.582823 872.254387,660.673253 1338.28877,667.365876 C1804.32315,674.058498 1959.4053,1035.3859 2257.84328,816.875056 C2556.28127,598.36421 2296.0059,94.9689458 2226.21868,17.2397983 C2156.43147,-60.4893492 2123.66331,148.341876 1734.62314,173.936037 C1345.58298,199.530198 371.973831,-49.0858594 216.306106,189.845434 C60.6383813,428.776727 177.442513,696.720035 396.969038,790.151429 Z" id="Path" fill="url(#linearGradient-1)"></path>
            </g>
        </g>
    </g>
</svg>
