<svg width="400" height="400" viewBox="0 0 400 400" fill="none" xmlns="http://www.w3.org/2000/svg">
<path fill-rule="evenodd" clip-rule="evenodd" d="M86.3741 294.5C93.2642 294.821 100.168 294.346 106.95 293.086C103.383 313.388 106.397 334.736 116.319 352.783C131.249 379.94 160.263 398.026 190.795 399.846C216.337 401.368 242.216 391.554 260.314 373.757C291.524 342.875 322.538 311.795 353.551 280.716C369.026 265.208 384.501 249.7 400 234.217L376.564 210.806L237.304 349.923L237.161 350.066C227.038 360.082 213.217 366.157 199.047 366.832C179.092 367.783 159.056 357.677 147.977 341.133C133.272 319.174 136.216 287.944 154.167 269.017C154.384 268.79 154.601 268.566 154.82 268.342L155.078 268.081C186.204 237.28 217.135 206.283 248.067 175.286C263.532 159.787 278.998 144.288 294.488 128.814L271.052 105.403L252.794 123.642L131.792 244.519C121.634 254.634 107.775 260.751 93.534 261.43C73.5789 262.38 53.5432 252.273 42.4645 235.73C27.67 213.637 30.8499 182.386 48.6556 163.613C48.872 163.387 49.0893 163.162 49.3083 162.939C80.1291 131.656 111.28 100.7 142.431 69.7448C157.96 54.3139 173.488 38.8829 188.975 23.4115L165.541 0L26.2604 139.135L26.0629 139.334C-2.06997 167.706 -7.86156 213.423 10.8069 247.38C25.9175 274.866 55.4411 293.027 86.3741 294.5ZM355.396 80.7169C339.781 51.8902 308.131 33.2895 275.736 33.0007H274.644C251.294 33.2087 227.924 42.7405 211.133 59.2489C179.891 90.1625 148.846 121.273 117.801 152.384C102.358 167.861 86.9139 183.337 71.4458 198.79L94.8815 222.201L234.143 83.0837C244.291 72.9762 258.154 66.8534 272.399 66.1744C292.354 65.2238 312.391 75.3304 323.469 91.8738C338.354 114.101 335.041 145.853 316.626 164.665C285.793 195.96 254.629 226.928 223.465 257.896C207.949 273.315 192.433 288.733 176.958 304.193L200.393 327.604L339.674 188.469L339.871 188.27C367.683 160.226 373.804 114.698 355.396 80.7169Z" fill="url(#paint0_linear)"/>
<defs>
<linearGradient id="paint0_linear" x1="-139.84" y1="220.112" x2="220.158" y2="580.115" gradientUnits="userSpaceOnUse">
<stop stop-color="#24C6DC"/>
<stop offset="1" stop-color="#514A9D"/>
</linearGradient>
</defs>
</svg>
