<svg xmlns="http://www.w3.org/2000/svg" version="1.1" xmlns:xlink="http://www.w3.org/1999/xlink" xmlns:svgjs="http://svgjs.com/svgjs" width="100%" height="100%"><svg width="100%" height="100%" viewBox="0 0 159 159" version="1.1" xmlns="http://www.w3.org/2000/svg" xmlns:xlink="http://www.w3.org/1999/xlink" xml:space="preserve" xmlns:serif="http://www.serif.com/" style="fill-rule:evenodd;clip-rule:evenodd;stroke-linejoin:round;stroke-miterlimit:2;"><path id="SvgjsPath1000" d="M79.207,0C35.491,0 0,35.491 0,79.207C0,122.923 35.491,158.414 79.207,158.414C122.923,158.414 158.414,122.923 158.414,79.207C158.414,35.491 122.923,0 79.207,0ZM51.72,25.79C32.375,35.773 19.137,55.956 19.137,79.207C19.137,108.432 40.052,132.811 67.722,138.179C57.903,129.377 51.72,116.596 51.72,102.381L51.72,25.79ZM99.787,73.451C115.755,73.451 128.718,86.414 128.718,102.381C128.718,118.348 115.755,131.312 99.787,131.312C83.82,131.312 70.857,118.348 70.857,102.381C70.857,86.414 83.82,73.451 99.787,73.451ZM139.114,74.751C136.831,43.675 110.862,19.137 79.207,19.137C76.372,19.137 73.583,19.333 70.857,19.714L70.857,64.003C78.907,57.922 88.929,54.314 99.787,54.314C116.036,54.314 130.413,62.394 139.114,74.751Z"></path></svg><style>@media (prefers-color-scheme: light) { :root { filter: none; } }
@media (prefers-color-scheme: dark) { :root { filter: invert(100%); } }
</style></svg>