<?xml version="1.0" standalone="no"?>
<!DOCTYPE svg PUBLIC "-//W3C//DTD SVG 20010904//EN"
 "http://www.w3.org/TR/2001/REC-SVG-20010904/DTD/svg10.dtd">
<svg version="1.0" xmlns="http://www.w3.org/2000/svg"
 width="700.000000pt" height="700.000000pt" viewBox="0 0 700.000000 700.000000"
 preserveAspectRatio="xMidYMid meet">
<metadata>
Created by potrace 1.11, written by Peter Selinger 2001-2013
</metadata>
<g transform="translate(0.000000,700.000000) scale(0.100000,-0.100000)"
fill="#000000" stroke="none">
<path d="M1869 5462 c-602 -603 -1116 -1124 -1141 -1157 -142 -188 -244 -429
-274 -651 -3 -27 -8 -60 -10 -74 -7 -56 -4 -241 5 -320 13 -105 15 -113 40
-203 121 -440 480 -802 941 -946 168 -52 412 -71 589 -46 l54 8 -8 -64 c-14
-111 -8 -410 9 -438 2 -3 7 -23 10 -43 9 -57 65 -224 99 -297 17 -36 59 -109
93 -161 195 -296 505 -511 855 -594 314 -75 608 -41 916 104 186 88 261 148
576 460 221 218 1920 1917 1935 1934 3 4 -348 356 -355 356 -3 0 -494 -488
-1091 -1085 -598 -596 -1112 -1103 -1142 -1126 -66 -50 -212 -120 -295 -142
-92 -25 -132 -30 -240 -30 -378 1 -739 269 -839 623 -25 90 -28 110 -32 230
-5 199 38 360 144 530 23 36 406 427 1131 1152 603 603 1096 1102 1096 1108 0
6 -78 89 -174 185 l-173 173 -1092 -1089 c-600 -598 -1119 -1108 -1152 -1133
-350 -254 -841 -211 -1150 101 -207 209 -290 501 -229 808 20 102 100 283 156
351 54 66 369 383 1738 1749 l471 470 -177 177 c-98 98 -180 178 -183 177 -3
0 -498 -494 -1101 -1097z"/>
<path d="M4479 6045 c-148 -21 -279 -58 -406 -116 -23 -10 -44 -19 -46 -19
-15 0 -211 -127 -262 -170 -54 -45 -365 -353 -1305 -1293 l-928 -929 175 -174
c96 -96 179 -174 184 -174 5 0 475 465 1045 1034 1067 1066 1153 1151 1193
1176 13 8 33 22 45 31 40 30 173 88 252 110 148 40 350 34 499 -16 166 -56
349 -186 432 -305 10 -14 23 -31 30 -38 35 -36 112 -223 127 -307 3 -16 8 -41
11 -55 10 -45 7 -214 -5 -285 -23 -140 -89 -294 -175 -405 -33 -43 -2052
-2070 -2091 -2099 -5 -3 -31 -29 -57 -57 l-48 -51 145 -144 c79 -79 160 -159
179 -177 l35 -34 1098 1099 c605 604 1113 1116 1130 1138 27 36 90 130 121
180 74 122 148 346 171 520 14 100 6 366 -12 455 -65 309 -217 572 -442 765
-219 186 -441 288 -744 341 -66 11 -265 10 -351 -1z"/>
</g>
</svg>
