<?xml version="1.0" standalone="no"?>
<!DOCTYPE svg PUBLIC "-//W3C//DTD SVG 20010904//EN" "http://www.w3.org/TR/2001/REC-SVG-20010904/DTD/svg10.dtd">
<svg
  version="1.0"
  xmlns="http://www.w3.org/2000/svg"
  width="700.000000pt"
  height="700.000000pt"
  viewBox="0 0 700.000000 700.000000"
  preserveAspectRatio="xMidYMid meet"
>
  <metadata>
    Created by potrace 1.14, written by Peter Selinger 2001-2017
  </metadata>
  <g
    transform="translate(0.000000,700.000000) scale(0.100000,-0.100000)"
    fill="#000000"
    stroke="none"
  >
    <path
      d="M3279 6996 c-2 -2 -48 -7 -102 -10 -53 -4 -103 -9 -110 -11 -6 -2
-34 -6 -62 -9 -27 -3 -75 -10 -105 -16 -30 -6 -68 -13 -85 -16 -142 -25 -449
-111 -550 -154 -11 -5 -76 -32 -145 -61 -674 -282 -1260 -798 -1642 -1444
-138 -234 -266 -532 -341 -795 -41 -144 -93 -386 -103 -481 -3 -35 -8 -66 -9
-69 -2 -3 -7 -48 -12 -100 -15 -175 -8 -616 11 -730 3 -14 7 -47 10 -75 25
-205 98 -494 188 -735 110 -295 251 -554 465 -854 141 -198 403 -470 624 -647
63 -50 296 -219 303 -219 1 0 44 -25 95 -55 291 -176 632 -314 971 -394 275
-65 513 -93 795 -93 260 -1 446 17 710 67 517 99 1104 380 1515 724 30 25 68
57 84 71 55 46 281 274 343 345 269 311 490 688 635 1080 65 175 143 471 163
615 3 25 8 52 10 60 2 8 7 44 10 80 4 36 9 68 11 71 5 8 18 288 18 384 0 79
-12 291 -19 350 -2 17 -6 53 -9 80 -11 97 -46 281 -76 400 -17 66 -32 127 -34
136 -5 18 -65 197 -90 264 -26 72 -96 228 -147 330 -233 458 -567 863 -974
1181 -110 87 -221 164 -235 164 -5 0 -10 4 -10 9 0 5 -15 16 -32 25 -18 10
-62 35 -98 57 -157 95 -418 217 -610 284 -95 33 -328 100 -380 109 -14 2 -45
9 -70 14 -25 6 -61 13 -80 16 -19 3 -46 8 -60 11 -36 7 -88 14 -150 20 -30 3
-68 8 -85 11 -36 5 -531 15 -536 10z m451 -849 c19 -3 64 -8 100 -12 36 -4 74
-9 85 -11 304 -56 535 -133 775 -257 63 -33 134 -72 158 -88 24 -16 45 -29 48
-29 6 0 126 -80 134 -89 3 -4 32 -26 65 -51 343 -255 644 -643 824 -1061 59
-137 129 -360 157 -494 16 -78 35 -202 40 -265 6 -74 6 -75 -12 -50 -41 57
-131 160 -207 238 -260 265 -603 465 -957 558 -198 52 -333 69 -550 69 -184
-1 -264 -8 -419 -40 -268 -55 -516 -158 -739 -306 -57 -38 -106 -69 -108 -69
-8 0 -4 1940 4 1941 4 0 16 2 27 5 11 2 56 7 100 10 44 4 81 7 83 9 4 4 357
-3 392 -8z m-1454 -2010 c1 -1661 3 -1835 25 -1962 6 -33 12 -69 14 -80 9 -55
46 -199 70 -270 29 -88 120 -301 139 -325 6 -8 22 -35 36 -60 70 -133 195
-296 334 -437 44 -46 78 -83 74 -83 -19 0 -195 46 -278 72 -479 153 -881 422
-1230 824 -295 340 -529 858 -586 1299 -3 22 -7 49 -9 61 -25 118 -25 538 0
688 2 11 11 66 21 121 71 429 285 881 583 1235 66 79 259 271 321 321 85 67
175 135 222 167 79 54 252 152 257 146 4 -3 6 -776 7 -1717z m2284 -382 c36
-4 68 -9 71 -11 4 -2 24 -6 44 -10 109 -17 300 -100 430 -186 89 -59 250 -213
312 -298 63 -87 119 -188 156 -280 30 -75 60 -175 57 -190 -1 -3 3 -17 9 -32
23 -61 32 -281 17 -418 -37 -339 -252 -690 -546 -890 -130 -88 -335 -175 -460
-195 -25 -4 -54 -10 -65 -12 -11 -3 -83 -7 -160 -8 -145 -4 -227 4 -330 31
-33 8 -68 17 -77 19 -42 9 -195 77 -266 119 -328 192 -535 491 -617 891 -14
66 -13 331 1 411 73 414 325 754 699 942 61 30 224 88 273 96 15 3 43 8 62 11
90 17 132 20 225 19 55 -1 129 -4 165 -9z"
    />
  </g>
</svg>
