<?xml version="1.0" standalone="no"?>
<!DOCTYPE svg PUBLIC "-//W3C//DTD SVG 20010904//EN"
 "http://www.w3.org/TR/2001/REC-SVG-20010904/DTD/svg10.dtd">
<svg version="1.0" xmlns="http://www.w3.org/2000/svg"
 width="700.000000pt" height="700.000000pt" viewBox="0 0 700.000000 700.000000"
 preserveAspectRatio="xMidYMid meet">
<metadata>
Created by potrace 1.11, written by Peter Selinger 2001-2013
</metadata>
<g transform="translate(0.000000,700.000000) scale(0.100000,-0.100000)"
fill="#000000" stroke="none">
<path d="M1999 5282 c-891 -891 -1024 -1028 -1077 -1110 -151 -228 -215 -441
-216 -717 -1 -159 3 -198 29 -310 129 -557 652 -967 1235 -968 83 0 197 10
211 19 13 8 16 -19 7 -71 -17 -102 -11 -283 13 -405 99 -503 482 -881 1009
-997 107 -24 357 -24 470 0 227 48 411 134 579 273 47 39 526 510 1064 1048
l977 976 -158 160 c-88 88 -163 160 -168 160 -5 0 -458 -448 -1007 -995 -1022
-1021 -1060 -1056 -1187 -1109 -25 -10 -54 -22 -65 -27 -112 -47 -320 -56
-460 -20 -260 67 -490 273 -568 510 -85 256 -44 546 107 754 25 34 435 452
913 929 477 477 924 923 992 992 l123 124 -161 161 c-89 88 -163 161 -166 161
-3 0 -454 -448 -1003 -996 -548 -548 -1022 -1013 -1052 -1034 -150 -102 -271
-141 -452 -145 -109 -2 -139 1 -213 21 -115 33 -181 63 -271 125 -92 64 -181
159 -234 251 -125 218 -139 509 -35 743 64 145 78 161 1111 1191 547 545 994
994 994 997 0 5 -236 243 -302 304 l-24 23 -1015 -1018z"/>
<path d="M4448 5835 c-2 -1 -25 -5 -53 -8 -190 -20 -436 -118 -600 -239 -38
-28 -197 -178 -353 -332 -226 -224 -1731 -1729 -1739 -1739 -1 -1 72 -76 161
-165 l163 -163 993 991 c546 545 1015 1008 1044 1029 298 222 686 218 990 -11
146 -110 255 -288 291 -473 13 -66 12 -233 -1 -308 -8 -42 -28 -113 -45 -157
-64 -167 -55 -158 -1126 -1225 l-996 -994 162 -160 c88 -89 164 -161 167 -161
15 0 1997 1989 2042 2049 79 104 130 191 172 294 165 405 126 862 -103 1202
-22 33 -43 62 -47 65 -3 3 -14 16 -23 30 -9 14 -45 53 -80 88 -234 238 -559
379 -889 387 -70 1 -128 2 -130 0z"/>
</g>
</svg>
