<?xml version="1.0" standalone="no"?>
<!DOCTYPE svg PUBLIC "-//W3C//DTD SVG 20010904//EN"
 "http://www.w3.org/TR/2001/REC-SVG-20010904/DTD/svg10.dtd">
<svg version="1.0" xmlns="http://www.w3.org/2000/svg"
 width="700.000000pt" height="700.000000pt" viewBox="0 0 700.000000 700.000000"
 preserveAspectRatio="xMidYMid meet">
<metadata>
Created by potrace 1.14, written by Peter Selinger 2001-2017
</metadata>
<g transform="translate(0.000000,700.000000) scale(0.100000,-0.100000)"
fill="#000000" stroke="none">
<path d="M1634 5737 c-694 -694 -1281 -1289 -1305 -1322 -227 -307 -331 -635
-324 -1020 4 -177 5 -186 35 -326 111 -501 476 -917 982 -1118 75 -30 238 -75
308 -85 19 -2 55 -7 80 -11 99 -14 304 -10 424 9 l38 6 -6 -37 c-3 -21 -8 -58
-11 -83 -7 -54 -7 -284 -1 -325 2 -16 7 -57 11 -90 3 -32 8 -62 11 -66 2 -4 6
-24 10 -44 3 -21 21 -84 39 -141 172 -529 639 -937 1210 -1055 115 -24 374
-33 490 -16 112 15 281 54 330 76 11 5 47 19 80 32 50 19 122 54 230 113 139
76 230 163 1508 1439 l1228 1227 -205 206 -206 206 -1242 -1240 c-684 -683
-1261 -1255 -1283 -1273 -122 -97 -300 -177 -458 -206 -23 -4 -105 -7 -182 -7
-162 1 -253 20 -394 82 -320 141 -537 416 -591 747 -13 75 -16 257 -6 315 23
131 44 201 87 299 23 49 85 154 114 191 11 13 582 586 1268 1273 1085 1087
1246 1251 1235 1265 -23 29 -389 392 -395 392 -4 0 -562 -555 -1241 -1232
-679 -678 -1239 -1238 -1246 -1243 -31 -29 -127 -96 -176 -123 -53 -30 -176
-80 -213 -88 -10 -2 -27 -6 -37 -9 -196 -62 -508 -23 -716 90 -62 33 -191 124
-229 162 -205 203 -306 445 -303 729 2 179 33 313 110 469 54 108 94 161 217
289 58 60 620 623 1249 1250 628 627 1142 1143 1142 1146 0 5 -380 388 -403
407 -2 1 -570 -566 -1263 -1260z"/>
<path d="M4849 6426 c-2 -2 -60 -6 -129 -10 -302 -14 -657 -148 -888 -334 -26
-20 -53 -41 -60 -47 -36 -26 -2512 -2503 -2512 -2512 0 -6 90 -101 200 -211
l201 -200 1223 1222 c673 671 1242 1238 1264 1258 85 78 244 166 372 206 126
39 305 55 413 36 20 -3 47 -7 60 -9 180 -24 402 -141 549 -291 129 -132 218
-291 254 -454 4 -19 8 -37 9 -40 6 -22 18 -155 18 -195 1 -53 -10 -173 -18
-215 -29 -147 -110 -325 -198 -435 -50 -63 -540 -556 -1767 -1779 l-742 -739
205 -205 205 -205 1264 1264 c1334 1335 1325 1324 1433 1524 42 78 110 236
120 279 2 12 13 54 24 93 11 40 23 92 26 115 4 24 8 45 10 48 5 8 18 187 18
250 1 188 -47 441 -111 595 -91 219 -250 437 -423 584 -106 90 -110 93 -205
152 -220 139 -473 225 -718 245 -45 3 -84 8 -87 10 -3 2 -8 2 -10 0z"/>
</g>
</svg>
