<?xml version="1.0" encoding="UTF-8"?>
<svg width="400" height="400" viewBox="0 0 400 400" version="1.1" xmlns="http://www.w3.org/2000/svg" xmlns:xlink="http://www.w3.org/1999/xlink">
    <title>Logo no boarder</title>
    <defs>
        <linearGradient x1="10.0404131%" y1="10.0283163%" x2="100.039812%" y2="100.028952%" id="linearGradient-1">
            <stop stop-color="#F03F32" offset="0%"></stop>
            <stop stop-color="#360940" offset="100%"></stop>
        </linearGradient>
    </defs>
    <g id="logo-no-boarder" stroke="none" stroke-width="1" fill="none" fill-rule="evenodd">
        <path d="M106.949521,293.085897 C100.168308,294.34602 93.2642292,294.820603 86.3741487,294.500237 C55.4410625,293.026705 25.9174945,274.86629 10.8069221,247.380379 C-7.86156124,213.422762 -2.06996819,167.705585 26.0629352,139.333581 L26.2604473,139.135376 L165.540584,0 L188.975393,23.4114998 C142.419101,69.9197034 95.4929226,116.06199 49.3083123,162.938801 C49.0892534,163.162118 48.8719901,163.387229 48.6556246,163.613236 C30.84991,182.386202 27.6699654,213.637111 42.4645184,235.730234 C53.5431509,252.272722 73.5789566,262.380277 93.5339618,261.42961 C107.774583,260.750691 121.633647,254.634141 131.792053,244.519412 L252.794242,123.642208 L271.052439,105.40287 L294.488146,128.81437 C248.01804,175.236475 201.766994,221.879207 155.07783,268.080686 L154.820167,268.341671 C154.601108,268.565885 154.383845,268.790098 154.167479,269.017003 C136.216324,287.944228 133.271598,319.173612 147.977271,341.133104 C159.055903,357.676489 179.091709,367.783147 199.046714,366.83248 C213.217309,366.157149 227.037768,360.081854 237.16116,350.065778 L237.303907,349.923178 L376.564293,210.80574 L400,234.21724 C353.438321,280.730824 307.096599,327.465932 260.314066,373.757097 C242.215674,391.554285 216.337102,401.367671 190.795198,399.845709 C160.262523,398.02599 131.248895,379.940014 116.318777,352.783249 C106.397385,334.735838 103.382633,313.388001 106.949521,293.085897 Z M275.736168,33.0006722 C308.130844,33.2894595 339.781258,51.8902297 355.396384,80.7169393 C373.803613,114.697874 367.682534,160.225815 339.871036,188.270467 L339.673524,188.468672 L200.393387,327.604048 L176.957681,304.192548 C223.51487,257.684344 270.441049,211.542058 316.625659,164.665247 C335.040968,145.852819 338.353784,114.101465 323.469453,91.873814 C312.390821,75.3304289 292.354117,65.2237712 272.399112,66.1744374 C258.154002,66.8533566 244.291346,72.9761848 234.142816,83.0837393 L94.8815329,222.201178 L71.445826,198.789678 C118.007505,152.275197 164.349227,105.540986 211.132658,59.248924 C227.923879,42.7405162 251.294048,33.2087425 274.643567,33.0006722 L275.736168,33.0006722 Z" id="Shape-Copy" fill="url(#linearGradient-1)" fill-rule="nonzero"></path>
    </g>
</svg>
