<svg height="1316" width="1442" xmlns="http://www.w3.org/2000/svg" xmlns:xlink="http://www.w3.org/1999/xlink"><linearGradient id="a"><stop offset="0" stop-color="#f03f32"/><stop offset="1" stop-color="#360940"/></linearGradient><linearGradient id="b" x1="100.04%" x2="10.04%" xlink:href="#a" y1="84.875%" y2="22.136%"/><linearGradient id="c" x1="10.04%" x2="100.04%" xlink:href="#a" y1="10.703%" y2="99.184%"/><g fill="none" fill-rule="evenodd"><path d="M1087.988 159.174c204.236 118.842 244.333 270.864 236.295 447.797-8.037 176.933-153.703 274.656-271.528 327.766-117.824 53.11-378.49 214.137-739.189 219.725-360.698 5.59-143.702-198.302-76.68-414.369s646.865-699.76 851.102-580.919z" fill="url(#b)" transform="rotate(-15 800.796 635.328)"/><path d="M939.432 211.277C1113 257 1158.177 378.452 1175.097 509.894c16.92 131.441-79.855 222.774-161.498 277.54-81.644 54.765-256.617 208-526.927 259.97-270.309 51.97-133.712-127.057-111.39-295.16 22.323-168.104 390.582-586.69 564.15-540.967z" fill="url(#c)" transform="translate(6 21)"/></g></svg>