<?xml version="1.0" encoding="UTF-8"?>
<svg width="182" height="142" viewBox="0 0 182 142" version="1.1" xmlns="http://www.w3.org/2000/svg" xmlns:xlink="http://www.w3.org/1999/xlink">
    <!-- Generator: Sketch 58 (84663) - https://sketch.com -->
    <title>Shape 1</title>
    <desc>Created with Sketch.</desc>
    <defs>
        <linearGradient x1="106.363549%" y1="53.9938463%" x2="28.3422009%" y2="37.6212169%" id="linearGradient-1">
            <stop stop-color="#F03F32" offset="0%"></stop>
            <stop stop-color="#360940" offset="100%"></stop>
        </linearGradient>
        <linearGradient x1="10.0404131%" y1="36.9863816%" x2="90.7568693%" y2="57.6551857%" id="linearGradient-2">
            <stop stop-color="#F03F32" offset="0%"></stop>
            <stop stop-color="#360940" offset="100%"></stop>
        </linearGradient>
        <linearGradient x1="14.1989738%" y1="50%" x2="443.736925%" y2="214.084263%" id="linearGradient-3">
            <stop stop-color="#F03F32" offset="0%"></stop>
            <stop stop-color="#360940" offset="100%"></stop>
        </linearGradient>
        <linearGradient x1="-81.1333894%" y1="50%" x2="100.039812%" y2="60.3365604%" id="linearGradient-4">
            <stop stop-color="#F03F32" offset="0%"></stop>
            <stop stop-color="#360940" offset="100%"></stop>
        </linearGradient>
        <linearGradient x1="10.0404131%" y1="22.2418864%" x2="188.51586%" y2="113.952604%" id="linearGradient-5">
            <stop stop-color="#F03F32" offset="0%"></stop>
            <stop stop-color="#360940" offset="100%"></stop>
        </linearGradient>
        <linearGradient x1="-223.630745%" y1="-21.8844545%" x2="595.857424%" y2="368.583954%" id="linearGradient-6">
            <stop stop-color="#F03F32" offset="0%"></stop>
            <stop stop-color="#360940" offset="100%"></stop>
        </linearGradient>
        <linearGradient x1="10.0404131%" y1="22.2418864%" x2="284.558015%" y2="180.389298%" id="linearGradient-7">
            <stop stop-color="#F03F32" offset="0%"></stop>
            <stop stop-color="#360940" offset="100%"></stop>
        </linearGradient>
    </defs>
    <g id="Shapes" stroke="none" stroke-width="1" fill="none" fill-rule="evenodd">
        <g id="Desktop-HD" transform="translate(-710.000000, -436.000000)">
            <g id="Shape-1" transform="translate(800.454058, 513.545942) rotate(-45.000000) translate(-800.454058, -513.545942) translate(709.954058, 451.545942)">
                <path d="M7.91851254,26.3118989 C-3.80966346,43.14437 -1.9027411,68.253149 22.1012476,75.7236183 C40.6575333,81.4978916 62.868444,76.7610301 79.4673259,87.5062476 C91.1937611,95.0971711 95.7850202,108.375741 108.112127,115.46668 C135.216605,131.05797 169.832956,113.955782 178.216358,89.1617903 C184.771984,69.7701693 179.041469,46.8965184 164.90202,30.9483819 C160.365652,25.8330934 154.685038,22.9371736 148.373116,21.2277277 C131.783866,16.7327784 110.828841,20.4226921 94.8154282,13.4965754 C86.0150604,9.69323398 77.6447714,5.03466767 68.3187002,2.32745946 C63.8624064,1.03558813 59.4035596,0.439339828 55.02293,0.439339828 C35.7347213,0.437332258 17.9078056,11.9758411 7.91851254,26.3118989 Z" id="Fill-1" fill="url(#linearGradient-1)"></path>
                <path d="M36.722843,11.8031434 C23.3957054,18.5043207 12.6882316,31.1885845 8.40352916,43.9089031 C2.56501441,61.2378209 11.0745817,83.1418871 34.4043352,84.8957508 C41.6838155,85.4433825 49.0266058,84.3497215 56.357359,83.2552593 C67.1862443,81.6388044 77.9882778,80.0223494 88.5134608,83.6992336 C100.981227,88.0558501 108.660706,98.9120376 121.52523,102.702294 C149.810979,111.036952 175.888405,88.8197102 176.596735,65.1046937 C176.999511,51.6660841 173.279621,37.2427792 159.889636,29.0653599 C156.993816,27.2976753 154.044756,26.0417679 151.042455,25.1844659 C142.879298,22.854928 134.312208,23.4708635 125.312249,24.7548134 C117.696544,25.8414637 110.050746,25.8705079 102.607146,23.9095297 C85.2434527,19.3375862 70.8824078,7.49059388 53.9918607,7.48959236 C48.5578579,7.48959236 42.8643657,8.7154541 36.722843,11.8031434 Z" id="Fill-7" fill="url(#linearGradient-2)"></path>
                <path d="M27.1237748,5.48862164 C21.3876165,6.05101916 15.6135468,9.76163115 11.7317501,13.2097236 C8.29405813,16.2620175 4.1165054,21.0620854 4.45994493,25.5653043 C4.59157516,27.2888457 6.08825095,29.1658601 8.23401214,29.4213117 C8.24990667,29.4243408 8.26674309,29.4253505 8.28263762,29.4273699 C11.0579398,29.7242188 13.113632,27.3050008 14.2968913,25.4855388 C15.8333623,23.120844 16.913366,20.4835328 19.4194031,18.7064778 C22.2936046,16.6699324 25.9104926,15.543118 28.847448,13.5661443 C30.146443,12.6917525 31.4276596,11.4124748 32.0590844,10.0988677 C33.428604,7.25053128 30.8907778,5.45227279 27.8743497,5.45227279 C27.6271015,5.45227279 27.3763212,5.46438907 27.1237748,5.48862164 Z" id="Fill-10" fill="url(#linearGradient-3)"></path>
                <path d="M145.492001,112.438064 C141.358134,112.929253 134.022798,111.454216 132.260822,115.901387 C132.059854,116.406498 131.992086,116.95357 132.096075,117.528585 C132.603169,120.33091 137.283856,121.51692 140.03782,122.112524 C147.209577,123.664818 155.584805,124.16483 161.647732,119.947077 C163.642223,118.558807 165.128453,116.502872 165.044326,114.329288 C164.920474,111.129894 161.439753,108.615909 157.798959,108.268842 C157.595654,108.249723 157.392349,108.240115 157.190213,108.240115 C153.167346,108.240115 149.662088,111.942464 145.492001,112.438064 Z" id="Fill-13" fill="url(#linearGradient-4)"></path>
                <path d="M72.460857,95.7605573 C66.4609329,100.491491 71.8427045,109.210697 79.8608814,108.724952 C83.5365424,108.502563 86.9946355,106.17265 87.7428571,103.151379 C88.8607675,98.6325929 83.7460917,93.7444264 78.1946289,93.7444264 C76.2542053,93.7444264 74.2607164,94.341365 72.460857,95.7605573 Z" id="Fill-16" fill="url(#linearGradient-5)"></path>
                <path d="M60.1232002,103.269363 C57.1229146,105.79273 59.8135751,110.442619 63.8224058,110.183807 C65.6610842,110.064732 67.3894322,108.823391 67.7642416,107.211406 C68.321929,104.801469 65.7652582,102.194174 62.9894961,102.194174 C62.0198202,102.194174 61.0231049,102.512843 60.1232002,103.269363 Z" id="Fill-19" fill="url(#linearGradient-6)"></path>
                <path d="M165.091865,39.9000757 C159.091814,44.6306668 164.473935,53.3499753 172.491692,52.8634559 C176.16743,52.6403866 179.626186,50.3111801 180.373834,47.2895516 C181.491768,42.7715933 176.377338,37.8829906 170.825404,37.8829906 C168.885529,37.8829906 166.891408,38.4808983 165.091865,39.9000757 Z" id="Fill-22" fill="url(#linearGradient-7)"></path>
            </g>
        </g>
    </g>
</svg>
