<svg
  xmlns="http://www.w3.org/2000/svg"
  xml:space="preserve"
  fill-rule="evenodd"
  stroke-linejoin="round"
  stroke-miterlimit="2"
  clip-rule="evenodd"
  viewBox="0 0 159 159"
>
  <path
    d="M79.207 0C35.491 0 0 35.491 0 79.207c0 43.716 35.491 79.207 79.207 79.207 43.716 0 79.207-35.491 79.207-79.207C158.414 35.491 122.923 0 79.207 0ZM51.72 25.79c-19.345 9.983-32.583 30.166-32.583 53.417 0 29.225 20.915 53.604 48.585 58.972-9.819-8.802-16.002-21.583-16.002-35.798V25.79Zm48.067 47.661c15.968 0 28.931 12.963 28.931 28.93s-12.963 28.931-28.931 28.931c-15.967 0-28.93-12.964-28.93-28.931s12.963-28.93 28.93-28.93Zm39.327 1.3c-2.283-31.076-28.252-55.614-59.907-55.614-2.835 0-5.624.196-8.35.577v44.289a47.836 47.836 0 0 1 28.93-9.689c16.249 0 30.626 8.08 39.327 20.437Z"
  />
  <style>
    @media (prefers-color-scheme: light) {
      :root {
        filter: none;
      }
    }
    @media (prefers-color-scheme: dark) {
      :root {
        filter: invert(100%);
      }
    }
  </style>
</svg>
