<?xml version="1.0" standalone="no"?>
<!DOCTYPE svg PUBLIC "-//W3C//DTD SVG 20010904//EN"
 "http://www.w3.org/TR/2001/REC-SVG-20010904/DTD/svg10.dtd">
<svg version="1.0" xmlns="http://www.w3.org/2000/svg"
 width="500.000000pt" height="500.000000pt" viewBox="0 0 500.000000 500.000000"
 preserveAspectRatio="xMidYMid meet">
<metadata>
Created by potrace 1.11, written by Peter Selinger 2001-2013
</metadata>
<g transform="translate(0.000000,500.000000) scale(0.100000,-0.100000)"
fill="#000000" stroke="none">
<path d="M0 2500 l0 -2500 2500 0 2500 0 0 2500 0 2500 -2500 0 -2500 0 0
-2500z m1863 1240 c-860 -855 -927 -926 -968 -1012 -113 -237 -75 -486 100
-664 114 -117 251 -174 415 -174 104 0 180 19 274 67 65 33 132 97 799 762
l727 726 117 -118 118 -117 -731 -732 c-668 -670 -734 -739 -763 -798 -44 -92
-61 -170 -61 -275 0 -161 50 -285 159 -395 74 -75 144 -118 246 -152 57 -18
90 -23 175 -22 119 1 209 26 303 85 32 20 332 312 772 751 l720 718 118 -118
117 -118 -722 -720 c-463 -462 -746 -736 -786 -763 -90 -60 -214 -118 -307
-141 -415 -106 -855 99 -1040 484 -67 141 -80 204 -80 394 l0 162 -30 -6 c-70
-16 -248 -6 -348 20 -326 84 -572 325 -658 647 -32 119 -33 326 -1 452 25 99
72 208 128 294 24 37 303 324 768 791 l731 732 118 -117 118 -118 -528 -525z
m1609 401 c262 -68 494 -258 603 -493 136 -296 101 -663 -92 -932 -37 -52
-1405 -1431 -1456 -1468 l-29 -21 -114 114 -114 114 709 710 c393 394 728 736
750 769 92 133 123 343 74 501 -59 190 -237 348 -438 390 -129 27 -246 11
-375 -51 -72 -35 -103 -65 -808 -768 l-732 -731 -118 118 -117 117 710 711
c391 391 735 730 766 754 110 86 234 143 387 176 110 24 281 20 394 -10z"/>
</g>
</svg>
