<svg xmlns="http://www.w3.org/2000/svg" fill-rule="evenodd" fill="currentColor" viewBox="0 0 602 165">
    <path d="M213.651 153.56c18.429 0 34.278-11.426 41.742-27.827l-22.944-5.345c-4.331 6.635-11.058 10.781-18.798 10.689-11.518-.184-19.443-7.925-21.93-18.337h67.358c4.054-29.671-16.771-56.301-45.428-56.301-25.432 0-46.073 21.747-46.073 48.561s20.641 48.56 46.073 48.56Zm-22.668-57.683c2.396-11.241 11.519-19.811 22.668-19.811 11.15 0 20.456 8.754 22.668 19.811h-45.336Z" />
    <path d="M354.818 92.929c0-20.18-16.402-36.49-36.49-36.49-10.044 0-19.074 4.147-25.34 10.781l-.092-8.201h-22.483l.092 92.146h22.483V98.826a19.585 19.585 0 0 1 19.627-19.627c10.873 0 19.719 8.754 19.719 19.627v52.339h22.484V92.929Z" />
    <path d="M410.013 153.56c25.432 0 46.072-21.746 46.072-48.468 0-26.906-20.64-48.653-46.072-48.653-25.432 0-46.073 21.747-46.073 48.653 0 26.722 20.641 48.468 46.073 48.468Zm0-22.483c-12.808 0-23.589-11.334-23.589-25.985 0-14.006 10.32-26.169 23.589-26.169 12.992 0 23.589 11.886 23.589 26.169 0 14.006-10.228 25.985-23.589 25.985Z" />
    <path d="m508.148 151.165 19.903-59.895 19.995 59.895h22.3l30.776-92.146h-22.023l-19.995 59.618-19.903-59.618h-22.207l-19.904 59.618-19.995-59.618h-22.023l30.776 92.146h22.3Z" />
    <path d="M82.389 0C36.917 0 0 36.917 0 82.389c0 45.472 36.917 82.39 82.389 82.39 45.472 0 82.39-36.918 82.39-82.39S127.861 0 82.389 0ZM53.798 26.826C33.676 37.21 19.906 58.205 19.906 82.389c0 30.4 21.755 55.758 50.537 61.341-10.213-9.155-16.645-22.45-16.645-37.235V26.826Zm49.999 49.576c16.608 0 30.093 13.484 30.093 30.093s-13.485 30.093-30.093 30.093c-16.609 0-30.093-13.484-30.093-30.093s13.484-30.093 30.093-30.093Zm40.907 1.352c-2.375-32.324-29.388-57.848-62.315-57.848-2.948 0-5.849.204-8.685.6v46.068a49.76 49.76 0 0 1 30.093-10.078c16.902 0 31.856 8.405 40.907 21.258Z" />
</svg>