<svg xmlns="http://www.w3.org/2000/svg" xml:space="preserve" fill-rule="evenodd" stroke-linejoin="round" stroke-miterlimit="2" clip-rule="evenodd" viewBox="0 0 468 141">
    <path d="M113.365 125.578a40.558 40.558 0 0 0 9.608-9.069c10.859-12.362 17.446-28.568 17.446-46.299C140.419 31.46 108.959 0 70.21 0 31.46 0 0 31.46 0 70.21c0 38.749 31.46 70.209 70.21 70.209 16.267 0 31.249-5.544 43.155-14.841ZM50.662 22.869C32.083 30.558 19 48.868 19 70.21c0 25.716 18.998 47.031 43.711 50.663-7.434-7.304-12.049-17.473-12.049-28.711V22.869Zm57.548 81.654a51.644 51.644 0 0 1-5.955 5.621 21.152 21.152 0 0 1-11.336 3.275c-11.732 0-21.257-9.525-21.257-21.257 0-11.732 9.525-21.257 21.257-21.257 11.732 0 21.257 9.525 21.257 21.257 0 4.608-1.469 8.876-3.966 12.361Zm13.01-38.855C118.921 39.531 96.944 19 70.21 19c-.184 0-.368.001-.548.003v38.973a40.04 40.04 0 0 1 21.257-6.071c12.078 0 22.921 5.33 30.301 13.763Z" />
    <path fill-rule="nonzero" d="M166.919 130.919c14.4 0 26.784-8.928 32.616-21.744l-22.032-5.112c-2.664 3.24-6.408 5.328-10.584 5.256-6.696-.144-10.656-4.032-12.672-9.144h48.024c4.32-22.896-12.384-45.144-35.352-45.144-19.872 0-36 16.992-36 37.944s16.128 37.944 36 37.944Zm-13.464-46.584c2.088-6.192 7.344-10.584 13.464-10.584 6.192 0 11.448 4.392 13.536 10.584h-27Z" />
    <g fill-rule="nonzero">
        <path fill="url(#a)" d="M275.805 82.226c0-15.48-12.528-28.008-28.008-28.008-6.84 0-13.104 2.448-17.928 6.552l-.072-4.536h-21.6l.072 72h21.6v-39.96c0-6.768 5.4-12.168 12.168-12.168 6.696 0 12.168 5.4 12.168 12.168v39.96h21.6V82.226Z" />
        <path fill="url(#b)" d="M317.545 130.106c19.872 0 36-16.992 36-37.872 0-21.024-16.128-38.016-36-38.016s-36 16.992-36 38.016c0 20.88 16.128 37.872 36 37.872Zm0-21.6c-7.776 0-14.4-7.056-14.4-16.272 0-8.784 6.336-16.416 14.4-16.416 7.776 0 14.4 7.344 14.4 16.416 0 8.784-6.192 16.272-14.4 16.272Z" />
        <path fill="url(#c)" d="m395.861 128.234 13.392-40.464 13.392 40.464h21.168l24.048-72h-21.168l-13.536 40.464-13.392-40.464h-21.024l-13.392 40.464-13.536-40.464h-21.168l24.048 72h21.168Z" />
    </g>
    <defs>
        <linearGradient id="a" x1="0" x2="1" y1="0" y2="0" gradientTransform="matrix(225.906 72 -21.2631 66.7146 159.668 93.723)" gradientUnits="userSpaceOnUse">
            <stop offset="0" stop-color="#f97316" />
            <stop offset="1" stop-color="#eab308" />
        </linearGradient>
        <linearGradient id="b" x1="0" x2="1" y1="0" y2="0" gradientTransform="matrix(225.906 72 -21.2631 66.7146 159.668 93.723)" gradientUnits="userSpaceOnUse">
            <stop offset="0" stop-color="#f97316" />
            <stop offset="1" stop-color="#eab308" />
        </linearGradient>
        <linearGradient id="c" x1="0" x2="1" y1="0" y2="0" gradientTransform="matrix(225.906 72 -21.2631 66.7146 159.668 93.723)" gradientUnits="userSpaceOnUse">
            <stop offset="0" stop-color="#f97316" />
            <stop offset="1" stop-color="#eab308" />
        </linearGradient>
    </defs>
</svg>